<svg width="500" height="500" viewBox="0 0 500 500" fill="none" xmlns="http://www.w3.org/2000/svg">
<path d="M438.86 304.34C438.86 304.34 455.36 195.6 409.61 130.34C330.21 17.0898 194.4 31.3398 134.41 62.8498C74.42 94.3598 66.92 178.33 76.67 218.85C86.42 259.37 57.92 281.09 36.92 317.85C15.92 354.61 26.42 398.08 46.67 421.33C66.92 444.58 169.67 485.82 304.67 448.33C439.67 410.84 438.86 304.34 438.86 304.34Z" fill="#FFA500"/>
<path opacity="0.7" d="M438.86 304.34C438.86 304.34 455.36 195.6 409.61 130.34C330.21 17.0898 194.4 31.3398 134.41 62.8498C74.42 94.3598 66.92 178.33 76.67 218.85C86.42 259.37 57.92 281.09 36.92 317.85C15.92 354.61 26.42 398.08 46.67 421.33C66.92 444.58 169.67 485.82 304.67 448.33C439.67 410.84 438.86 304.34 438.86 304.34Z" fill="white"/>
<g opacity="0.3">
<path d="M207.01 230.98H33.67V466.97H207.01V230.98Z" stroke="black" stroke-linecap="round" stroke-linejoin="round"/>
<path d="M50.73 240.16H38.53V254.2H50.73V240.16Z" stroke="black" stroke-linecap="round" stroke-linejoin="round"/>
<path d="M69.32 240.16H57.12V254.2H69.32V240.16Z" stroke="black" stroke-linecap="round" stroke-linejoin="round"/>
<path d="M87.91 240.16H75.71V254.2H87.91V240.16Z" stroke="black" stroke-linecap="round" stroke-linejoin="round"/>
<path d="M106.5 240.16H94.3V254.2H106.5V240.16Z" stroke="black" stroke-linecap="round" stroke-linejoin="round"/>
<path d="M125.09 240.16H112.89V254.2H125.09V240.16Z" stroke="black" stroke-linecap="round" stroke-linejoin="round"/>
<path d="M143.68 240.16H131.48V254.2H143.68V240.16Z" stroke="black" stroke-linecap="round" stroke-linejoin="round"/>
<path d="M162.27 240.16H150.07V254.2H162.27V240.16Z" stroke="black" stroke-linecap="round" stroke-linejoin="round"/>
<path d="M180.86 240.16H168.66V254.2H180.86V240.16Z" stroke="black" stroke-linecap="round" stroke-linejoin="round"/>
<path d="M199.45 240.16H187.25V254.2H199.45V240.16Z" stroke="black" stroke-linecap="round" stroke-linejoin="round"/>
<path d="M50.73 263.92H38.53V277.96H50.73V263.92Z" stroke="black" stroke-linecap="round" stroke-linejoin="round"/>
<path d="M69.32 263.92H57.12V277.96H69.32V263.92Z" stroke="black" stroke-linecap="round" stroke-linejoin="round"/>
<path d="M87.91 263.92H75.71V277.96H87.91V263.92Z" stroke="black" stroke-linecap="round" stroke-linejoin="round"/>
<path d="M106.5 263.92H94.3V277.96H106.5V263.92Z" stroke="black" stroke-linecap="round" stroke-linejoin="round"/>
<path d="M125.09 263.92H112.89V277.96H125.09V263.92Z" stroke="black" stroke-linecap="round" stroke-linejoin="round"/>
<path d="M143.68 263.92H131.48V277.96H143.68V263.92Z" stroke="black" stroke-linecap="round" stroke-linejoin="round"/>
<path d="M162.27 263.92H150.07V277.96H162.27V263.92Z" stroke="black" stroke-linecap="round" stroke-linejoin="round"/>
<path d="M180.86 263.92H168.66V277.96H180.86V263.92Z" stroke="black" stroke-linecap="round" stroke-linejoin="round"/>
<path d="M199.45 263.92H187.25V277.96H199.45V263.92Z" stroke="black" stroke-linecap="round" stroke-linejoin="round"/>
<path d="M50.73 287.68H38.53V301.72H50.73V287.68Z" stroke="black" stroke-linecap="round" stroke-linejoin="round"/>
<path d="M69.32 287.68H57.12V301.72H69.32V287.68Z" stroke="black" stroke-linecap="round" stroke-linejoin="round"/>
<path d="M87.91 287.68H75.71V301.72H87.91V287.68Z" stroke="black" stroke-linecap="round" stroke-linejoin="round"/>
<path d="M106.5 287.68H94.3V301.72H106.5V287.68Z" stroke="black" stroke-linecap="round" stroke-linejoin="round"/>
<path d="M125.09 287.68H112.89V301.72H125.09V287.68Z" stroke="black" stroke-linecap="round" stroke-linejoin="round"/>
<path d="M143.68 287.68H131.48V301.72H143.68V287.68Z" stroke="black" stroke-linecap="round" stroke-linejoin="round"/>
<path d="M162.27 287.68H150.07V301.72H162.27V287.68Z" stroke="black" stroke-linecap="round" stroke-linejoin="round"/>
<path d="M180.86 287.68H168.66V301.72H180.86V287.68Z" stroke="black" stroke-linecap="round" stroke-linejoin="round"/>
<path d="M199.45 287.68H187.25V301.72H199.45V287.68Z" stroke="black" stroke-linecap="round" stroke-linejoin="round"/>
<path d="M50.73 311.44H38.53V325.48H50.73V311.44Z" stroke="black" stroke-linecap="round" stroke-linejoin="round"/>
<path d="M69.32 311.44H57.12V325.48H69.32V311.44Z" stroke="black" stroke-linecap="round" stroke-linejoin="round"/>
<path d="M87.91 311.44H75.71V325.48H87.91V311.44Z" stroke="black" stroke-linecap="round" stroke-linejoin="round"/>
<path d="M106.5 311.44H94.3V325.48H106.5V311.44Z" stroke="black" stroke-linecap="round" stroke-linejoin="round"/>
<path d="M125.09 311.44H112.89V325.48H125.09V311.44Z" stroke="black" stroke-linecap="round" stroke-linejoin="round"/>
<path d="M143.68 311.44H131.48V325.48H143.68V311.44Z" stroke="black" stroke-linecap="round" stroke-linejoin="round"/>
<path d="M162.27 311.44H150.07V325.48H162.27V311.44Z" stroke="black" stroke-linecap="round" stroke-linejoin="round"/>
<path d="M180.86 311.44H168.66V325.48H180.86V311.44Z" stroke="black" stroke-linecap="round" stroke-linejoin="round"/>
<path d="M199.45 311.44H187.25V325.48H199.45V311.44Z" stroke="black" stroke-linecap="round" stroke-linejoin="round"/>
<path d="M50.73 335.2H38.53V349.24H50.73V335.2Z" stroke="black" stroke-linecap="round" stroke-linejoin="round"/>
<path d="M69.32 335.2H57.12V349.24H69.32V335.2Z" stroke="black" stroke-linecap="round" stroke-linejoin="round"/>
<path d="M87.91 335.2H75.71V349.24H87.91V335.2Z" stroke="black" stroke-linecap="round" stroke-linejoin="round"/>
<path d="M106.5 335.2H94.3V349.24H106.5V335.2Z" stroke="black" stroke-linecap="round" stroke-linejoin="round"/>
<path d="M125.09 335.2H112.89V349.24H125.09V335.2Z" stroke="black" stroke-linecap="round" stroke-linejoin="round"/>
<path d="M143.68 335.2H131.48V349.24H143.68V335.2Z" stroke="black" stroke-linecap="round" stroke-linejoin="round"/>
<path d="M162.27 335.2H150.07V349.24H162.27V335.2Z" stroke="black" stroke-linecap="round" stroke-linejoin="round"/>
<path d="M180.86 335.2H168.66V349.24H180.86V335.2Z" stroke="black" stroke-linecap="round" stroke-linejoin="round"/>
<path d="M199.45 335.2H187.25V349.24H199.45V335.2Z" stroke="black" stroke-linecap="round" stroke-linejoin="round"/>
<path d="M50.73 358.96H38.53V373H50.73V358.96Z" stroke="black" stroke-linecap="round" stroke-linejoin="round"/>
<path d="M69.32 358.96H57.12V373H69.32V358.96Z" stroke="black" stroke-linecap="round" stroke-linejoin="round"/>
<path d="M87.91 358.96H75.71V373H87.91V358.96Z" stroke="black" stroke-linecap="round" stroke-linejoin="round"/>
<path d="M106.5 358.96H94.3V373H106.5V358.96Z" stroke="black" stroke-linecap="round" stroke-linejoin="round"/>
<path d="M125.09 358.96H112.89V373H125.09V358.96Z" stroke="black" stroke-linecap="round" stroke-linejoin="round"/>
<path d="M143.68 358.96H131.48V373H143.68V358.96Z" stroke="black" stroke-linecap="round" stroke-linejoin="round"/>
<path d="M162.27 358.96H150.07V373H162.27V358.96Z" stroke="black" stroke-linecap="round" stroke-linejoin="round"/>
<path d="M180.86 358.96H168.66V373H180.86V358.96Z" stroke="black" stroke-linecap="round" stroke-linejoin="round"/>
<path d="M199.45 358.96H187.25V373H199.45V358.96Z" stroke="black" stroke-linecap="round" stroke-linejoin="round"/>
<path d="M50.73 382.72H38.53V396.76H50.73V382.72Z" stroke="black" stroke-linecap="round" stroke-linejoin="round"/>
<path d="M69.32 382.72H57.12V396.76H69.32V382.72Z" stroke="black" stroke-linecap="round" stroke-linejoin="round"/>
<path d="M87.91 382.72H75.71V396.76H87.91V382.72Z" stroke="black" stroke-linecap="round" stroke-linejoin="round"/>
<path d="M106.5 382.72H94.3V396.76H106.5V382.72Z" stroke="black" stroke-linecap="round" stroke-linejoin="round"/>
<path d="M125.09 382.72H112.89V396.76H125.09V382.72Z" stroke="black" stroke-linecap="round" stroke-linejoin="round"/>
<path d="M143.68 382.72H131.48V396.76H143.68V382.72Z" stroke="black" stroke-linecap="round" stroke-linejoin="round"/>
<path d="M162.27 382.72H150.07V396.76H162.27V382.72Z" stroke="black" stroke-linecap="round" stroke-linejoin="round"/>
<path d="M180.86 382.72H168.66V396.76H180.86V382.72Z" stroke="black" stroke-linecap="round" stroke-linejoin="round"/>
<path d="M199.45 382.72H187.25V396.76H199.45V382.72Z" stroke="black" stroke-linecap="round" stroke-linejoin="round"/>
<path d="M50.73 406.48H38.53V420.52H50.73V406.48Z" stroke="black" stroke-linecap="round" stroke-linejoin="round"/>
<path d="M69.32 406.48H57.12V420.52H69.32V406.48Z" stroke="black" stroke-linecap="round" stroke-linejoin="round"/>
<path d="M87.91 406.48H75.71V420.52H87.91V406.48Z" stroke="black" stroke-linecap="round" stroke-linejoin="round"/>
<path d="M106.5 406.48H94.3V420.52H106.5V406.48Z" stroke="black" stroke-linecap="round" stroke-linejoin="round"/>
<path d="M125.09 406.48H112.89V420.52H125.09V406.48Z" stroke="black" stroke-linecap="round" stroke-linejoin="round"/>
<path d="M143.68 406.48H131.48V420.52H143.68V406.48Z" stroke="black" stroke-linecap="round" stroke-linejoin="round"/>
<path d="M162.27 406.48H150.07V420.52H162.27V406.48Z" stroke="black" stroke-linecap="round" stroke-linejoin="round"/>
<path d="M180.86 406.48H168.66V420.52H180.86V406.48Z" stroke="black" stroke-linecap="round" stroke-linejoin="round"/>
<path d="M199.45 406.48H187.25V420.52H199.45V406.48Z" stroke="black" stroke-linecap="round" stroke-linejoin="round"/>
<path d="M50.73 430.24H38.53V444.28H50.73V430.24Z" stroke="black" stroke-linecap="round" stroke-linejoin="round"/>
<path d="M69.32 430.24H57.12V444.28H69.32V430.24Z" stroke="black" stroke-linecap="round" stroke-linejoin="round"/>
<path d="M87.91 430.24H75.71V444.28H87.91V430.24Z" stroke="black" stroke-linecap="round" stroke-linejoin="round"/>
<path d="M106.5 430.24H94.3V444.28H106.5V430.24Z" stroke="black" stroke-linecap="round" stroke-linejoin="round"/>
<path d="M125.09 430.24H112.89V444.28H125.09V430.24Z" stroke="black" stroke-linecap="round" stroke-linejoin="round"/>
<path d="M143.68 430.24H131.48V444.28H143.68V430.24Z" stroke="black" stroke-linecap="round" stroke-linejoin="round"/>
<path d="M162.27 430.24H150.07V444.28H162.27V430.24Z" stroke="black" stroke-linecap="round" stroke-linejoin="round"/>
<path d="M180.86 430.24H168.66V444.28H180.86V430.24Z" stroke="black" stroke-linecap="round" stroke-linejoin="round"/>
<path d="M199.45 430.24H187.25V444.28H199.45V430.24Z" stroke="black" stroke-linecap="round" stroke-linejoin="round"/>
<path d="M147.26 216.07H50.8V230.84H147.26V216.07Z" stroke="black" stroke-linecap="round" stroke-linejoin="round"/>
<path d="M155.33 209.81H152.64V231.3H155.33V209.81Z" stroke="black" stroke-linecap="round" stroke-linejoin="round"/>
</g>
<g opacity="0.3">
<path d="M137.84 214.17V82.0898H320.66V170.8H458.41V458.2" stroke="black" stroke-linecap="round" stroke-linejoin="round"/>
<path d="M319.81 179.54V408.41" stroke="black" stroke-linecap="round" stroke-linejoin="round"/>
<path d="M357.11 179.54V408.41" stroke="black" stroke-linecap="round" stroke-linejoin="round"/>
<path d="M366.44 179.54V408.41" stroke="black" stroke-linecap="round" stroke-linejoin="round"/>
<path d="M415.23 179.54V408.41" stroke="black" stroke-linecap="round" stroke-linejoin="round"/>
<path d="M424.55 179.54V408.41" stroke="black" stroke-linecap="round" stroke-linejoin="round"/>
<path d="M287.52 90.5801V411.28" stroke="black" stroke-linecap="round" stroke-linejoin="round"/>
<path d="M288.24 112.1H313.35" stroke="black" stroke-linecap="round" stroke-linejoin="round"/>
<path d="M288.24 150.84H313.35" stroke="black" stroke-linecap="round" stroke-linejoin="round"/>
<path d="M288.24 189.58H313.35" stroke="black" stroke-linecap="round" stroke-linejoin="round"/>
<path d="M288.24 228.33H313.35" stroke="black" stroke-linecap="round" stroke-linejoin="round"/>
<path d="M288.24 267.07H313.35" stroke="black" stroke-linecap="round" stroke-linejoin="round"/>
<path d="M288.24 305.81H313.35" stroke="black" stroke-linecap="round" stroke-linejoin="round"/>
<path d="M288.24 344.55H313.35" stroke="black" stroke-linecap="round" stroke-linejoin="round"/>
<path d="M169.14 109.23H144.75V117.12H169.14V109.23Z" stroke="black" stroke-linecap="round" stroke-linejoin="round"/>
<path d="M203.58 109.23H179.19V117.12H203.58V109.23Z" stroke="black" stroke-linecap="round" stroke-linejoin="round"/>
<path d="M238.01 109.23H213.62V117.12H238.01V109.23Z" stroke="black" stroke-linecap="round" stroke-linejoin="round"/>
<path d="M272.45 109.23H248.06V117.12H272.45V109.23Z" stroke="black" stroke-linecap="round" stroke-linejoin="round"/>
<path d="M169.14 128.96H144.75V136.85H169.14V128.96Z" stroke="black" stroke-linecap="round" stroke-linejoin="round"/>
<path d="M203.58 128.96H179.19V136.85H203.58V128.96Z" stroke="black" stroke-linecap="round" stroke-linejoin="round"/>
<path d="M238.01 128.96H213.62V136.85H238.01V128.96Z" stroke="black" stroke-linecap="round" stroke-linejoin="round"/>
<path d="M272.45 128.96H248.06V136.85H272.45V128.96Z" stroke="black" stroke-linecap="round" stroke-linejoin="round"/>
<path d="M169.14 148.69H144.75V156.58H169.14V148.69Z" stroke="black" stroke-linecap="round" stroke-linejoin="round"/>
<path d="M203.58 148.69H179.19V156.58H203.58V148.69Z" stroke="black" stroke-linecap="round" stroke-linejoin="round"/>
<path d="M238.01 148.69H213.62V156.58H238.01V148.69Z" stroke="black" stroke-linecap="round" stroke-linejoin="round"/>
<path d="M272.45 148.69H248.06V156.58H272.45V148.69Z" stroke="black" stroke-linecap="round" stroke-linejoin="round"/>
<path d="M169.14 168.42H144.75V176.31H169.14V168.42Z" stroke="black" stroke-linecap="round" stroke-linejoin="round"/>
<path d="M203.58 168.42H179.19V176.31H203.58V168.42Z" stroke="black" stroke-linecap="round" stroke-linejoin="round"/>
<path d="M238.01 168.42H213.62V176.31H238.01V168.42Z" stroke="black" stroke-linecap="round" stroke-linejoin="round"/>
<path d="M272.45 168.42H248.06V176.31H272.45V168.42Z" stroke="black" stroke-linecap="round" stroke-linejoin="round"/>
<path d="M169.14 188.15H144.75V196.04H169.14V188.15Z" stroke="black" stroke-linecap="round" stroke-linejoin="round"/>
<path d="M203.58 188.15H179.19V196.04H203.58V188.15Z" stroke="black" stroke-linecap="round" stroke-linejoin="round"/>
<path d="M238.01 188.15H213.62V196.04H238.01V188.15Z" stroke="black" stroke-linecap="round" stroke-linejoin="round"/>
<path d="M272.45 188.15H248.06V196.04H272.45V188.15Z" stroke="black" stroke-linecap="round" stroke-linejoin="round"/>
<path d="M203.58 207.88H179.19V215.77H203.58V207.88Z" stroke="black" stroke-linecap="round" stroke-linejoin="round"/>
<path d="M238.01 207.88H213.62V215.77H238.01V207.88Z" stroke="black" stroke-linecap="round" stroke-linejoin="round"/>
<path d="M272.45 207.88H248.06V215.77H272.45V207.88Z" stroke="black" stroke-linecap="round" stroke-linejoin="round"/>
<path d="M238.01 230.48H213.62V238.37H238.01V230.48Z" stroke="black" stroke-linecap="round" stroke-linejoin="round"/>
<path d="M272.45 230.48H248.06V238.37H272.45V230.48Z" stroke="black" stroke-linecap="round" stroke-linejoin="round"/>
<path d="M238.01 252H213.62V259.89H238.01V252Z" stroke="black" stroke-linecap="round" stroke-linejoin="round"/>
<path d="M272.45 252H248.06V259.89H272.45V252Z" stroke="black" stroke-linecap="round" stroke-linejoin="round"/>
<path d="M238.01 273.53H213.62V281.42H238.01V273.53Z" stroke="black" stroke-linecap="round" stroke-linejoin="round"/>
<path d="M272.45 273.53H248.06V281.42H272.45V273.53Z" stroke="black" stroke-linecap="round" stroke-linejoin="round"/>
<path d="M238.01 295.05H213.62V302.94H238.01V295.05Z" stroke="black" stroke-linecap="round" stroke-linejoin="round"/>
<path d="M272.45 295.05H248.06V302.94H272.45V295.05Z" stroke="black" stroke-linecap="round" stroke-linejoin="round"/>
<path d="M238.01 316.57H213.62V324.46H238.01V316.57Z" stroke="black" stroke-linecap="round" stroke-linejoin="round"/>
<path d="M272.45 316.57H248.06V324.46H272.45V316.57Z" stroke="black" stroke-linecap="round" stroke-linejoin="round"/>
<path d="M238.01 338.1H213.62V345.99H238.01V338.1Z" stroke="black" stroke-linecap="round" stroke-linejoin="round"/>
<path d="M272.45 338.1H248.06V345.99H272.45V338.1Z" stroke="black" stroke-linecap="round" stroke-linejoin="round"/>
<path d="M238.01 359.62H213.62V367.51H238.01V359.62Z" stroke="black" stroke-linecap="round" stroke-linejoin="round"/>
<path d="M272.45 359.62H248.06V367.51H272.45V359.62Z" stroke="black" stroke-linecap="round" stroke-linejoin="round"/>
<path d="M238.01 381.14H213.62V389.03H238.01V381.14Z" stroke="black" stroke-linecap="round" stroke-linejoin="round"/>
<path d="M272.45 381.14H248.06V389.03H272.45V381.14Z" stroke="black" stroke-linecap="round" stroke-linejoin="round"/>
<path d="M238.01 402.67H213.62V410.56H238.01V402.67Z" stroke="black" stroke-linecap="round" stroke-linejoin="round"/>
<path d="M272.45 402.67H248.06V410.56H272.45V402.67Z" stroke="black" stroke-linecap="round" stroke-linejoin="round"/>
<path d="M321.24 143.67H391.55V170.21" stroke="black" stroke-linecap="round" stroke-linejoin="round"/>
<path d="M146.18 81.9701V74.0801H281.06V81.9701" stroke="black" stroke-linecap="round" stroke-linejoin="round"/>
</g>
<path d="M98.58 145C98.58 145 96.68 135.17 88.12 131.68C79.56 128.19 74.12 132.63 72.89 135.8C71.66 138.97 71.3 144.36 66.55 142.14C61.8 139.92 59.89 137.39 53.86 139.92C47.83 142.45 49.73 147.85 45.29 148.81C40.85 149.77 42.44 147.22 37.68 147.81C32.92 148.4 33.24 151.37 32 153C30.76 154.63 30.73 153.32 26.29 153.95C23.5742 154.36 21.039 155.56 19 157.4H117C117 157.4 119.54 152.33 112.88 148.52C106.22 144.71 100.49 148.84 98.58 145Z" stroke="#ADADAD" stroke-linecap="round" stroke-linejoin="round"/>
<path d="M133.52 46.5599C133.52 46.5599 132.7 42.3199 129 40.8199C125.3 39.3199 123 41.2299 122.44 42.5999C121.88 43.9699 121.75 46.2899 119.7 45.3299C117.65 44.3699 116.83 43.3299 114.23 44.3799C111.63 45.4299 112.45 47.7999 110.53 48.2099C108.61 48.6199 109.3 47.5199 107.25 47.7999C105.2 48.0799 105.33 49.2999 104.79 49.9799C104.25 50.6599 104.24 50.1199 102.32 50.3999C101.148 50.5787 100.055 51.1007 99.18 51.8999H141.45C141.45 51.8999 142.55 49.7099 139.67 48.0699C136.79 46.4299 134.34 48.2099 133.52 46.5599Z" stroke="#ADADAD" stroke-linecap="round" stroke-linejoin="round"/>
<path d="M331.6 65.7798C331.6 65.7798 330.78 61.5398 327.09 60.0398C323.4 58.5398 321.09 60.4498 320.52 61.8098C319.95 63.1698 319.84 65.5098 317.78 64.5498C315.72 63.5898 314.91 62.5498 312.31 63.5498C309.71 64.5498 310.53 66.9698 308.62 67.3798C306.71 67.7898 307.39 66.6998 305.33 66.9698C303.27 67.2398 303.42 68.4798 302.87 69.1598C302.32 69.8398 302.32 69.2998 300.41 69.5698C299.235 69.7541 298.14 70.2791 297.26 71.0798H339.54C339.54 71.0798 340.63 68.8898 337.76 67.2498C334.89 65.6098 332.42 67.4198 331.6 65.7798Z" stroke="#ADADAD" stroke-linecap="round" stroke-linejoin="round"/>
<path d="M433 122.27H375.44C374.873 122.298 374.307 122.21 373.775 122.012C373.243 121.814 372.757 121.511 372.346 121.119C371.935 120.728 371.608 120.257 371.384 119.736C371.161 119.214 371.045 118.652 371.045 118.085C371.045 117.518 371.161 116.956 371.384 116.434C371.608 115.913 371.935 115.442 372.346 115.051C372.757 114.659 373.243 114.356 373.775 114.158C374.307 113.96 374.873 113.872 375.44 113.9H433C433.567 113.872 434.133 113.96 434.665 114.158C435.197 114.356 435.683 114.659 436.094 115.051C436.505 115.442 436.832 115.913 437.056 116.434C437.279 116.956 437.395 117.518 437.395 118.085C437.395 118.652 437.279 119.214 437.056 119.736C436.832 120.257 436.505 120.728 436.094 121.119C435.683 121.511 435.197 121.814 434.665 122.012C434.133 122.21 433.567 122.298 433 122.27Z" fill="#263238" stroke="#263238" stroke-linecap="round" stroke-linejoin="round"/>
<path d="M435.21 196.24L367.32 128.35C364.59 125.62 363.71 122.08 365.32 120.45C366.93 118.82 370.49 119.7 373.22 122.45L441.11 190.33C443.84 193.06 444.72 196.6 443.11 198.24C441.5 199.88 437.94 199 435.21 196.24Z" fill="#263238" stroke="#263238" stroke-linecap="round" stroke-linejoin="round"/>
<path d="M367.32 190.31L435.21 122.43C437.94 119.7 441.47 118.81 443.11 120.43C444.75 122.05 443.86 125.6 441.11 128.33L373.22 196.22C370.49 198.95 366.96 199.83 365.32 198.22C363.68 196.61 364.59 193 367.32 190.31Z" fill="#263238" stroke="#263238" stroke-linecap="round" stroke-linejoin="round"/>
<path d="M433 41.7101H375.44C374.89 41.7101 374.345 41.6017 373.837 41.3911C373.328 41.1806 372.866 40.8719 372.477 40.4829C372.088 40.0938 371.78 39.6319 371.569 39.1235C371.358 38.6152 371.25 38.0703 371.25 37.5201C371.25 36.9698 371.358 36.425 371.569 35.9166C371.78 35.4083 372.088 34.9464 372.477 34.5573C372.866 34.1682 373.328 33.8596 373.837 33.649C374.345 33.4385 374.89 33.3301 375.44 33.3301H433C434.111 33.3301 435.177 33.7715 435.963 34.5573C436.749 35.3431 437.19 36.4088 437.19 37.5201C437.19 38.6313 436.749 39.6971 435.963 40.4829C435.177 41.2686 434.111 41.7101 433 41.7101Z" fill="#263238" stroke="#263238" stroke-linecap="round" stroke-linejoin="round"/>
<path d="M435.21 115.67L367.32 47.7798C364.59 45.0598 363.71 41.5198 365.32 39.8798C366.93 38.2398 370.49 39.1298 373.22 41.8798L441.11 109.77C443.84 112.5 444.72 116.04 443.11 117.67C441.5 119.3 437.94 118.4 435.21 115.67Z" fill="#263238" stroke="#263238" stroke-linecap="round" stroke-linejoin="round"/>
<path d="M367.32 109.75L435.21 41.86C437.94 39.13 441.47 38.25 443.11 39.86C444.75 41.47 443.86 45.04 441.11 47.76L373.22 115.65C370.49 118.38 366.96 119.27 365.32 117.65C363.68 116.03 364.59 112.48 367.32 109.75Z" fill="#263238" stroke="#263238" stroke-linecap="round" stroke-linejoin="round"/>
<path d="M433 202.19H375.44C374.329 202.19 373.263 201.749 372.477 200.963C371.691 200.177 371.25 199.111 371.25 198C371.25 196.889 371.691 195.823 372.477 195.037C373.263 194.251 374.329 193.81 375.44 193.81H433C434.111 193.81 435.177 194.251 435.963 195.037C436.749 195.823 437.19 196.889 437.19 198C437.19 199.111 436.749 200.177 435.963 200.963C435.177 201.749 434.111 202.19 433 202.19Z" fill="#263238" stroke="#263238" stroke-linecap="round" stroke-linejoin="round"/>
<path d="M435.21 276.15L367.32 208.26C364.59 205.54 363.71 202 365.32 200.36C366.93 198.72 370.49 199.61 373.22 202.36L441.11 270.25C443.84 272.98 444.72 276.51 443.11 278.15C441.5 279.79 437.94 278.88 435.21 276.15Z" fill="#263238" stroke="#263238" stroke-linecap="round" stroke-linejoin="round"/>
<path d="M367.32 270.23L435.21 202.34C437.94 199.61 441.47 198.73 443.11 200.34C444.75 201.95 443.86 205.52 441.11 208.24L373.22 276.13C370.49 278.86 366.96 279.75 365.32 278.13C363.68 276.51 364.59 273 367.32 270.23Z" fill="#263238" stroke="#263238" stroke-linecap="round" stroke-linejoin="round"/>
<path d="M433 282.1H375.44C374.873 282.128 374.307 282.04 373.775 281.842C373.243 281.644 372.757 281.341 372.346 280.949C371.935 280.558 371.608 280.087 371.384 279.566C371.161 279.044 371.045 278.483 371.045 277.915C371.045 277.348 371.161 276.786 371.384 276.264C371.608 275.743 371.935 275.272 372.346 274.881C372.757 274.489 373.243 274.186 373.775 273.988C374.307 273.79 374.873 273.702 375.44 273.73H433C433.567 273.702 434.133 273.79 434.665 273.988C435.197 274.186 435.683 274.489 436.094 274.881C436.505 275.272 436.832 275.743 437.056 276.264C437.279 276.786 437.395 277.348 437.395 277.915C437.395 278.483 437.279 279.044 437.056 279.566C436.832 280.087 436.505 280.558 436.094 280.949C435.683 281.341 435.197 281.644 434.665 281.842C434.133 282.04 433.567 282.128 433 282.1Z" fill="#263238" stroke="#263238" stroke-linecap="round" stroke-linejoin="round"/>
<path d="M435.21 356.07L367.32 288.18C364.59 285.45 363.71 281.91 365.32 280.28C366.93 278.65 370.49 279.53 373.22 282.28L441.11 350.17C443.84 352.89 444.72 356.43 443.11 358.07C441.5 359.71 437.94 358.8 435.21 356.07Z" fill="#263238" stroke="#263238" stroke-linecap="round" stroke-linejoin="round"/>
<path d="M367.32 350.15L435.21 282.26C437.94 279.53 441.47 278.64 443.11 280.26C444.75 281.88 443.86 285.43 441.11 288.16L373.22 356.05C370.49 358.78 366.96 359.66 365.32 358.05C363.68 356.44 364.59 352.87 367.32 350.15Z" fill="#263238" stroke="#263238" stroke-linecap="round" stroke-linejoin="round"/>
<path d="M433 362H375.44C374.329 362 373.263 361.559 372.477 360.773C371.691 359.987 371.25 358.921 371.25 357.81C371.25 356.699 371.691 355.633 372.477 354.847C373.263 354.062 374.329 353.62 375.44 353.62H433C434.111 353.62 435.177 354.062 435.963 354.847C436.749 355.633 437.19 356.699 437.19 357.81C437.19 358.921 436.749 359.987 435.963 360.773C435.177 361.559 434.111 362 433 362Z" fill="#263238" stroke="#263238" stroke-linecap="round" stroke-linejoin="round"/>
<path d="M435.21 436L367.32 368.11C364.59 365.39 363.71 361.85 365.32 360.21C366.93 358.57 370.49 359.46 373.22 362.21L441.11 430.1C443.84 432.83 444.72 436.37 443.11 438C441.5 439.63 437.94 438.71 435.21 436Z" fill="#263238" stroke="#263238" stroke-linecap="round" stroke-linejoin="round"/>
<path d="M367.32 430.06L435.21 362.17C437.94 359.44 441.47 358.56 443.11 360.17C444.75 361.78 443.86 365.35 441.11 368.07L373.24 436C370.51 438.73 366.98 439.62 365.34 438C363.7 436.38 364.59 432.79 367.32 430.06Z" fill="#263238" stroke="#263238" stroke-linecap="round" stroke-linejoin="round"/>
<path d="M445.04 23.8101H432.15V466.96H445.04V23.8101Z" fill="#263238" stroke="#263238" stroke-linecap="round" stroke-linejoin="round"/>
<path d="M374.58 23.8101H361.69V466.96H374.58V23.8101Z" fill="#263238" stroke="#263238" stroke-linecap="round" stroke-linejoin="round"/>
<path d="M240.37 405.87L252.77 466.96H307.6L301.21 375.45L298.28 328.28L186.49 324.95L183.79 371.5L183.04 466.96H236.1L240.37 405.87Z" fill="#263238" stroke="#263238" stroke-linecap="round" stroke-linejoin="round"/>
<path d="M214.66 165.67C214.66 165.67 183.41 182.16 176.18 185.67C168.95 189.18 160.27 192.03 158.53 196.67C156.79 201.31 142.33 243.83 140.01 249.67C137.69 255.51 142.91 263.27 143.2 265C143.49 266.73 142.04 271.08 142.62 272.24C143.443 273.655 143.935 275.238 144.06 276.87C144.06 278.6 158.24 269.34 167.21 274.87C176.18 280.4 182.54 290.78 183.41 293.1C185.247 299.115 186.318 305.337 186.6 311.62C186.88 319.43 183.12 325.21 185.73 328.98C188.34 332.75 193.25 334.18 193.25 334.18C193.25 334.18 258.93 338.52 273.4 336.18C287.87 333.84 296.83 333 298.28 328.37C299.73 323.74 299.43 317.66 299.72 316.5C300.01 315.34 302.62 293.07 303.72 285.5C304.82 277.93 312.72 272.5 313.56 271.61C314.4 270.72 321.09 268.71 329.77 268.14C338.45 267.57 348.86 274.5 348.86 274.5C348.86 274.5 353.78 274.79 355.23 266.98C356.68 259.17 354.07 251.64 351.46 243.25C348.85 234.86 337.58 214.9 337.58 214.9C337.58 214.9 336.42 208.82 329.48 194.36C322.54 179.9 319.93 179.02 314.48 177.86C309.03 176.7 280.37 168.75 271.95 165.71C263.53 162.67 248.2 161.34 248.2 161.34C248.2 161.34 221.31 160.75 214.66 165.67Z" fill="#FFA500"/>
<g opacity="0.47">
<path d="M144 276.11H147.24C147.98 275.83 148.83 275.51 149.76 275.18H143.82C143.901 275.486 143.961 275.796 144 276.11Z" fill="white"/>
<path d="M198.9 174V182.37H190.28V178.49L189.35 178.98V182.37H182.77L180.33 183.62V191.4H171.71V187.73L170.78 188.14V191.4H164.11C163.298 191.86 162.513 192.368 161.76 192.92V200.92H157C156.89 201.22 156.79 201.53 156.67 201.85H161.74V209.95H153.87C153.76 210.25 153.66 210.56 153.55 210.88H161.74V219.49H153.12V212.12C152.82 213 152.5 213.9 152.19 214.82V219.49H150.6L150.27 220.42H152.21V228.52H147.48L147.15 229.45H152.21V238H144.16C144.053 238.32 143.943 238.63 143.83 238.93H152.21V247.03H141C140.88 247.36 140.76 247.67 140.66 247.96H152.25V256.57H140C140.08 256.89 140.17 257.2 140.27 257.51H152.27V265.6H143.27C143.27 265.88 143.27 266.2 143.19 266.53H152.25V274.34L153.18 274.07V266.53H161.8V273.02C162.11 273.02 162.42 273.08 162.73 273.12V266.53H170.82V275.15H167.9C168.36 275.45 168.82 275.75 169.26 276.08H170.82V277.26L171.75 278.04V276.04H180.37V284.13H177.69C177.95 284.437 178.2 284.747 178.44 285.06H180.37V287.66C180.7 288.14 181.01 288.6 181.3 289.05V285.05H189.39V293.67H183.71C183.8 293.94 183.89 294.25 183.99 294.6H189.39V302.69H185.72L185.87 303.62H189.39V312.24H186.6C186.6 312.55 186.6 312.86 186.6 313.17H189.36V321.26H185.36C185.29 321.58 185.23 321.89 185.17 322.19H189.34V330.81H187.56C187.937 331.141 188.33 331.451 188.74 331.74H189.34V332.14C189.66 332.34 189.97 332.52 190.27 332.69V331.74H198.89V334.34L199.82 334.39V331.74H207.91V334.86L208.84 334.92V331.74H217.46V335.37L218.39 335.42V331.74H226.48V335.8H227.41V331.7H236V336.15H236.93V331.66H245.02V336.4H245.95V331.63H254.57V336.56H255.5V331.63H263.59V336.53H264.52V331.65H273.14V335.95H273.36L274.07 335.84V331.68H282.16V334.56L283.09 334.41V331.68H291.71V332.62L292.64 332.34V331.68H294.39C294.992 331.42 295.571 331.108 296.12 330.75H292.64V322.13H299.3C299.3 321.81 299.35 321.5 299.37 321.2H292.64V313.11H300.13L300.25 312.18H292.64V303.7H300.73V308.54C301.02 306.27 301.34 303.71 301.66 301.09V294.68H302.48L302.6 293.75H301.66V285.13H303.8C303.86 284.82 303.92 284.5 304 284.2H301.7V276.11H308.7C309 275.78 309.29 275.47 309.58 275.18H301.68V266.56H310.3V274.46C310.62 274.153 310.93 273.863 311.23 273.59V266.59H319.32V269.59L320.25 269.38V266.55H328.87V268.16L329.79 268.09V266.55H337.88V269.25L338.81 269.55V266.55H347.43V273.55C347.81 273.77 348.13 273.96 348.36 274.11V266.54H355.3C355.36 266.233 355.41 265.923 355.45 265.61H348.36V257.52H355.28L355.13 256.58H348.36V248H353C352.91 247.69 352.82 247.38 352.72 247.07H348.4V239H349.92L349.52 238.07H348.4V235.6C348.1 234.95 347.79 234.29 347.47 233.6V238H338.85V229.39H345.42L344.94 228.46H338.85V220.36H340.69L340.18 219.43H338.85V217L337.92 215.33V219.42H329.83V210.81H336.47L336.16 209.88H329.83V201.78H333C332.87 201.48 332.73 201.17 332.6 200.85H329.87V194.9L329.58 194.28L328.94 192.96V200.85H320.32V192.24H328.58C328.42 191.92 328.27 191.61 328.11 191.31H320.32V183.21H323.37C323.12 182.88 322.88 182.57 322.64 182.28H320.32V180.01C320.022 179.789 319.711 179.586 319.39 179.4V182.28H311.3V177.01L310.37 176.77V182.28H301.7V174.47L300.77 174.22V182.28H292.68V173.67H298.78L295.45 172.74H292.68V172L291.75 171.74V172.79H283.13V169.23L282.2 168.95V172.79H274.11V166.42C273.78 166.32 273.47 166.21 273.18 166.11V172.79H264.56V163.69L263.63 163.5V172.79H255.54V162.15L254.61 162.03V172.78H246V161.29H245.07V172.78H237V161.48L236.07 161.53V172.78H227.45V162.22L226.52 162.33V172.78H218.4V164C218.08 164.1 217.77 164.21 217.47 164.32V172.83H208.85V168.78L207.92 169.27V172.83H201.14L198.9 174ZM199.83 173.76H207.92V182.37H199.83V173.76ZM273.18 228.54H264.56V220.44H273.18V228.54ZM274.11 220.44H282.2V228.54H274.11V220.44ZM208.85 229.44H217.47V238H208.85V229.44ZM207.92 238.05H199.83V229.44H207.92V238.05ZM237 275.18V266.56H245.09V275.18H237ZM245.09 276.11V284.2H237V276.11H245.09ZM237 265.63V257.54H245.09V265.63H237ZM227.45 229.42H236V238H227.38L227.45 229.42ZM226.52 238.03H218.4V229.42H226.49L226.52 238.03ZM237 229.42H245.09V238H237V229.42ZM236 239V247.1H227.38V239H236ZM236.93 239H245.02V247.1H237L236.93 239ZM245.02 248V256.61H237V248H245.02ZM245.95 257.55H254.57V265.64H246L245.95 257.55ZM245.95 256.61V248H254.57V256.61H245.95ZM245.95 247.07V239H254.57V247.1L245.95 247.07ZM245.95 238.07V229.46H254.57V238L245.95 238.07ZM245.95 228.53V220.43H254.57V228.53H245.95ZM245.02 228.53H237V220.43H245.09L245.02 228.53ZM236.02 228.53H227.4V220.43H236L236.02 228.53ZM226.47 228.53H218.4V220.43H226.49L226.47 228.53ZM217.47 228.53H208.85V220.43H217.47V228.53ZM217.47 239V247.1H208.85V239H217.47ZM218.4 239H226.49V247.1H218.4V239ZM226.49 248V256.61H218.4V248H226.49ZM227.42 248H236V256.61H227.38L227.42 248ZM236.04 257.55V265.64H227.42V257.55H236.04ZM236.04 266.55V275.17H227.42V266.55H236.04ZM236.04 276.1V284.19H227.42V276.1H236.04ZM236.04 285.1V293.72H227.42V285.1H236.04ZM236.97 285.1H245.06V293.72H237L236.97 285.1ZM245.97 285.1H254.59V293.72H246L245.97 285.1ZM245.97 284.17V276.08H254.59V284.17H245.97ZM245.97 275.17V266.55H254.59V275.17H245.97ZM255.52 266.55H263.61V275.17H255.52V266.55ZM255.52 265.62V257.53H263.61V265.62H255.52ZM255.52 256.62V248H263.61V256.61L255.52 256.62ZM255.52 247.08V239H263.61V247.1L255.52 247.08ZM255.52 238.08V229.47H263.61V238L255.52 238.08ZM264.52 229.47H273.14V238H264.52V229.47ZM263.59 228.54H255.5V220.44H263.59V228.54ZM255.5 219.54V210.93H263.59V219.54H255.5ZM254.57 219.54H246V210.93H254.62L254.57 219.54ZM245.02 219.54H237V210.93H245.09L245.02 219.54ZM236.02 219.54H227.4V210.93H236L236.02 219.54ZM226.47 219.54H218.4V210.93H226.49L226.47 219.54ZM217.47 219.54H208.85V210.93H217.47V219.54ZM207.92 219.54H199.83V210.93H207.92V219.54ZM207.92 220.47V228.57H199.83V220.47H207.92ZM198.92 228.57H190.3V220.47H198.92V228.57ZM198.92 229.5V238H190.3V229.39L198.92 229.5ZM198.92 239.04V247.14H190.3V239L198.92 239.04ZM199.85 239.04H207.94V247.14H199.85V239.04ZM207.94 248.04V256.65H199.85V248L207.94 248.04ZM208.87 248.04H217.49V256.65H208.87V248.04ZM217.49 257.59V265.68H208.87V257.59H217.49ZM218.42 257.59H226.51V265.68H218.4L218.42 257.59ZM226.51 266.59V275.21H218.4V266.59H226.51ZM226.51 276.14V284.23H218.4V276.14H226.51ZM226.51 285.14V293.76H218.4V285.14H226.51ZM226.51 294.69V302.78H218.4V294.69H226.51ZM227.44 294.69H236V302.78H227.38L227.44 294.69ZM236.99 294.69H245.08V302.78H237L236.99 294.69ZM245.99 294.69H254.61V302.78H246L245.99 294.69ZM255.54 294.69H263.63V302.78H255.54V294.69ZM255.54 293.76V285.14H263.63V293.76H255.54ZM255.54 284.21V276.12H263.63V284.21H255.54ZM264.54 276.12H273.16V284.21H264.54V276.12ZM264.54 275.19V266.57H273.16V275.19H264.54ZM264.54 265.64V257.55H273.16V265.64H264.54ZM264.54 256.64V248H273.16V256.61L264.54 256.64ZM264.54 247.1V239H273.16V247.1H264.54ZM274.09 239H282.18V247.1H274.09V239ZM274.09 238.07V229.46H282.18V238L274.09 238.07ZM283.09 229.46H291.71V238H283.09V229.46ZM292.64 229.46H300.73V238H292.64V229.46ZM292.64 228.53V220.43H300.73V228.53H292.64ZM291.71 228.53H283.09V220.43H291.71V228.53ZM283.09 219.53V210.92H291.71V219.53H283.09ZM282.16 219.53H274.07V210.92H282.16V219.53ZM273.16 219.53H264.54V210.92H273.16V219.53ZM264.54 209.99V201.89H273.16V209.99H264.54ZM263.61 209.99H255.52V201.89H263.61V209.99ZM254.61 209.99H246V201.89H254.62L254.61 209.99ZM245.06 209.99H237V201.89H245.09L245.06 209.99ZM236.06 209.99H227.44V201.89H236L236.06 209.99ZM226.51 209.99H218.4V201.89H226.49L226.51 209.99ZM217.51 209.99H208.89V201.89H217.51V209.99ZM207.96 209.99H199.87V201.89H207.96V209.99ZM198.96 209.99H190.34V201.89H198.96V209.99ZM198.96 210.92V219.53H190.34V210.92H198.96ZM189.41 219.53H181.32V210.92H189.41V219.53ZM189.41 220.46V228.56H181.32V220.46H189.41ZM189.41 229.46V238H181.32V229.39L189.41 229.46ZM180.41 238.07H171.79V229.46H180.41V238.07ZM180.41 239V247.1H171.79V239H180.41ZM181.34 239H189.43V247.1H181.34V239ZM189.43 248V256.61H181.34V248H189.43ZM190.36 248H198.98V256.61H190.36V248ZM198.98 257.55V265.64H190.36V257.55H198.98ZM199.91 257.55H208V265.64H199.91V257.55ZM208 266.55V275.17H199.91V266.55H208ZM208.93 266.55H217.55V275.17H208.93V266.55ZM217.55 276.1V284.19H208.93V276.1H217.55ZM217.55 285.1V293.72H208.93V285.1H217.55ZM217.55 294.65V302.74H208.93V294.65H217.55ZM217.55 303.65V312.27H208.93V303.7L217.55 303.65ZM218.48 303.65H226.57V312.27H218.4L218.48 303.65ZM227.48 303.65H236V312.27H227.38L227.48 303.65ZM237.03 303.65H245.12V312.27H237L237.03 303.65ZM246.03 303.65H254.65V312.27H246L246.03 303.65ZM255.58 303.65H263.67V312.27H255.58V303.65ZM264.58 303.65H273.2V312.27H264.58V303.65ZM264.58 302.72V294.63H273.2V302.72H264.58ZM264.58 293.72V285.1H273.2V293.72H264.58ZM274.13 285.1H282.22V293.72H274.13V285.1ZM274.13 284.17V276.08H282.22V284.17H274.13ZM274.13 275.17V266.55H282.22V275.17H274.13ZM274.13 265.62V257.53H282.22V265.62H274.13ZM274.13 256.62V248H282.22V256.61L274.13 256.62ZM283.13 248.01H291.75V256.62H283.13V248.01ZM283.13 247.08V239H291.75V247.1L283.13 247.08ZM292.68 238.98H300.77V247.08H292.68V238.98ZM301.68 238.98H310.3V247.08H301.7L301.68 238.98ZM311.23 238.98H319.32V247.08H311.23V238.98ZM311.23 238.05V229.44H319.32V238L311.23 238.05ZM310.3 238.05H301.7V229.44H310.32L310.3 238.05ZM301.68 228.51V220.41H310.3V228.51H301.68ZM301.68 219.51V210.9H310.3V219.51H301.68ZM300.75 219.51H292.66V210.9H300.75V219.51ZM292.66 209.97V201.87H300.75V209.97H292.66ZM291.73 209.97H283.11V201.87H291.73V209.97ZM282.18 209.97H274.09V201.87H282.18V209.97ZM274.09 200.97V192.36H282.18V200.97H274.09ZM273.16 200.97H264.54V192.36H273.16V200.97ZM263.61 200.97H255.52V192.36H263.61V200.97ZM254.61 200.97H246V192.36H254.62L254.61 200.97ZM245.06 200.97H237V192.36H245.09L245.06 200.97ZM236.06 200.97H227.44V192.36H236L236.06 200.97ZM226.51 200.97H218.4V192.36H226.49L226.51 200.97ZM217.51 200.97H208.89V192.36H217.51V200.97ZM207.96 200.97H199.87V192.36H207.96V200.97ZM198.96 200.97H190.34V192.36H198.96V200.97ZM189.41 200.97H181.32V192.36H189.41V200.97ZM189.41 201.9V210H181.32V201.9H189.41ZM180.41 210H171.79V201.9H180.41V210ZM180.41 210.93V219.54H171.79V210.93H180.41ZM180.41 220.47V228.57H171.79V220.47H180.41ZM170.86 228.57H162.77V220.47H170.86V228.57ZM170.86 229.5V238H162.77V229.39L170.86 229.5ZM170.86 239.04V247.14H162.77V239L170.86 239.04ZM170.86 248.04V256.65H162.77V248L170.86 248.04ZM171.79 248.04H180.41V256.65H171.79V248.04ZM180.41 257.59V265.68H171.79V257.59H180.41ZM181.34 257.59H189.43V265.68H181.34V257.59ZM189.43 266.59V275.21H181.34V266.59H189.43ZM190.36 266.59H198.98V275.21H190.36V266.59ZM198.98 276.14V284.23H190.36V276.14H198.98ZM199.91 276.14H208V284.23H199.91V276.14ZM208 285.14V293.76H199.91V285.14H208ZM208 294.69V302.78H199.91V294.69H208ZM208 303.69V312.31H199.91V303.7L208 303.69ZM208 313.24V321.33H199.91V313.24H208ZM208.93 313.24H217.55V321.33H208.93V313.24ZM218.48 313.24H226.57V321.33H218.4L218.48 313.24ZM227.48 313.24H236V321.33H227.38L227.48 313.24ZM237.03 313.24H245.12V321.33H237L237.03 313.24ZM246.03 313.24H254.65V321.33H246L246.03 313.24ZM255.58 313.24H263.67V321.33H255.58V313.24ZM264.58 313.24H273.2V321.33H264.58V313.24ZM274.13 313.24H282.22V321.33H274.13V313.24ZM274.13 312.31V303.7H282.22V312.32L274.13 312.31ZM274.13 302.76V294.67H282.22V302.76H274.13ZM283.13 294.67H291.75V302.76H283.13V294.67ZM283.13 293.74V285.12H291.75V293.74H283.13ZM283.13 284.19V276.1H291.75V284.19H283.13ZM283.13 275.19V266.57H291.75V275.19H283.13ZM283.13 265.64V257.55H291.75V265.64H283.13ZM292.68 257.55H300.77V265.64H292.68V257.55ZM292.68 256.61V248H300.77V256.61H292.68ZM301.68 248H310.3V256.61H301.7L301.68 248ZM311.23 248H319.32V256.61H311.23V248ZM320.23 248H328.85V256.61H320.23V248ZM329.78 248H337.87V256.61H329.78V248ZM329.78 247.07V239H337.87V247.1L329.78 247.07ZM328.85 247.07H320.23V239H328.85V247.07ZM320.23 238.07V229.46H328.85V238L320.23 238.07ZM320.23 228.53V220.43H328.85V228.53H320.23ZM319.3 228.53H311.21V220.43H319.3V228.53ZM311.21 219.53V210.92H319.3V219.53H311.21ZM311.21 209.99V201.89H319.3V209.99H311.21ZM310.28 209.99H301.7V201.89H310.32L310.28 209.99ZM301.66 200.99V192.38H310.28V200.99H301.66ZM300.73 200.99H292.64V192.38H300.73V200.99ZM291.73 200.99H283.11V192.38H291.73V200.99ZM283.11 191.45V183.35H291.73V191.45H283.11ZM282.18 191.45H274.09V183.35H282.18V191.45ZM273.18 191.45H264.56V183.35H273.18V191.45ZM263.63 191.45H255.54V183.35H263.63V191.45ZM254.63 191.45H246V183.35H254.62L254.63 191.45ZM245.08 191.45H237V183.35H245.09L245.08 191.45ZM236.08 191.45H227.46V183.35H236L236.08 191.45ZM226.53 191.45H218.4V183.35H226.49L226.53 191.45ZM217.53 191.45H208.91V183.35H217.53V191.45ZM207.98 191.45H199.89V183.35H207.98V191.45ZM198.98 183.35V191.45H190.36V183.35H198.98ZM181.34 183.35H189.43V191.45H181.34V183.35ZM180.41 192.35V200.96H171.79V192.35H180.41ZM162.77 192.35H170.86V200.96H162.77V192.35ZM162.77 201.89H170.86V209.99H162.77V201.89ZM162.77 210.89H170.86V219.5H162.77V210.89ZM153.22 220.43H161.84V228.53H153.22V220.43ZM153.22 229.43H161.84V238H153.22V229.43ZM153.22 238.97H161.84V247.07H153.22V238.97ZM153.22 247.97H161.84V256.58H153.22V247.97ZM153.22 265.61V257.52H161.84V265.61H153.22ZM162.77 265.61V257.52H170.86V265.61H162.77ZM171.77 275.16V266.54H180.39V275.16H171.77ZM181.32 284.16V276.07H189.41V284.16H181.32ZM190.32 285.09H198.94V293.71H190.32V285.09ZM190.32 294.64H198.94V302.73H190.32V294.64ZM190.32 303.64H198.94V312.26H190.32V303.64ZM190.32 313.19H198.94V321.28H190.32V313.19ZM190.32 330.83V322.21H198.94V330.83H190.32ZM199.87 330.83V322.21H207.96V330.83H199.87ZM208.87 330.83V322.21H217.49V330.83H208.87ZM218.42 330.83V322.21H226.51V330.83H218.42ZM227.42 330.83V322.21H236V330.83H227.42ZM236.97 330.83V322.21H245.06V330.83H236.97ZM245.97 330.83V322.21H254.59V330.83H245.97ZM255.52 330.83V322.21H263.61V330.83H255.52ZM264.52 330.83V322.21H273.14V330.83H264.52ZM274.07 330.83V322.21H282.16V330.83H274.07ZM291.71 330.83H283.09V322.21H291.71V330.83ZM291.71 321.28H283.09V313.19H291.71V321.28ZM291.71 312.28H283.09V303.7H291.71V312.28ZM300.71 302.73H292.62V294.64H300.71V302.73ZM300.71 293.73H292.62V285.11H300.71V293.73ZM300.71 284.18H292.62V276.09H300.71V284.18ZM300.71 275.18H292.62V266.56H300.71V275.18ZM301.64 265.63V257.54H310.26V265.63H301.64ZM311.19 265.63V257.54H319.28V265.63H311.19ZM320.19 265.63V257.54H328.81V265.63H320.19ZM329.74 265.63V257.54H337.83V265.63H329.74ZM347.38 265.63H338.76V257.54H347.38V265.63ZM347.38 256.63H338.76V248H347.38V256.63ZM347.38 238.99V247.09H338.76V239L347.38 238.99ZM337.83 238.06H329.74V229.45H337.83V238.06ZM337.83 220.42V228.52H329.74V220.42H337.83ZM328.83 219.49H320.21V210.88H328.83V219.49ZM328.83 201.85V209.95H320.21V201.85H328.83ZM319.28 200.92H311.19V192.31H319.28V200.92ZM319.28 183.28V191.38H311.19V183.28H319.28ZM310.28 183.28V191.38H301.7V183.28H310.28ZM300.73 183.28V191.38H292.64V183.28H300.73ZM291.73 173.74V182.35H283.11V173.74H291.73ZM282.18 173.74V182.35H274.09V173.74H282.18ZM273.18 173.74V182.35H264.56V173.74H273.18ZM263.63 173.74V182.35H255.54V173.74H263.63ZM254.63 173.74V182.35H246V173.74H254.63ZM245.08 173.74V182.35H237V173.74H245.08ZM236.08 173.74V182.35H227.46V173.74H236.08ZM226.53 173.74V182.35H218.4V173.74H226.53ZM217.53 173.74V182.35H208.91V173.74H217.53Z" fill="white"/>
</g>
<path d="M186.6 276.49C186.6 276.49 184.86 258.55 181.97 253.05C179.08 247.55 173.57 237.72 172.71 236.85" stroke="#263238" stroke-linecap="round" stroke-linejoin="round"/>
<path d="M177.14 224.31C176.826 222.679 176.409 221.069 175.89 219.49" stroke="#263238" stroke-linecap="round" stroke-linejoin="round"/>
<path d="M312.88 200.82C312.88 200.82 311.45 202.62 309.54 205.37" stroke="#263238" stroke-linecap="round" stroke-linejoin="round"/>
<path d="M305.29 267.33C305.29 267.33 298.21 262.33 299.38 257.25C300.55 252.17 310.6 232.7 310.79 231.12" stroke="#263238" stroke-linecap="round" stroke-linejoin="round"/>
<path d="M325.51 250.07C327.555 249.415 329.644 248.904 331.76 248.54" stroke="#263238" stroke-linecap="round" stroke-linejoin="round"/>
<path d="M311.63 260.07C311.63 260.07 313.78 255.16 321.74 251.53" stroke="#263238" stroke-linecap="round" stroke-linejoin="round"/>
<path d="M242.03 291.51L242.31 298.12" stroke="#263238" stroke-linecap="round" stroke-linejoin="round"/>
<path d="M239.52 232.84L241.92 288.81" stroke="#263238" stroke-linecap="round" stroke-linejoin="round"/>
<path d="M214.66 165.67C214.66 165.67 183.41 182.16 176.18 185.67C168.95 189.18 160.27 192.03 158.53 196.67C156.79 201.31 142.33 243.83 140.01 249.67C137.69 255.51 142.91 263.27 143.2 265C143.49 266.73 142.04 271.08 142.62 272.24C143.443 273.655 143.935 275.238 144.06 276.87C144.06 278.6 158.24 269.34 167.21 274.87C176.18 280.4 182.54 290.78 183.41 293.1C185.247 299.115 186.318 305.337 186.6 311.62C186.88 319.43 183.12 325.21 185.73 328.98C188.34 332.75 193.25 334.18 193.25 334.18C193.25 334.18 258.93 338.52 273.4 336.18C287.87 333.84 296.83 333 298.28 328.37C299.73 323.74 299.43 317.66 299.72 316.5C300.01 315.34 302.62 293.07 303.72 285.5C304.82 277.93 312.72 272.5 313.56 271.61C314.4 270.72 321.09 268.71 329.77 268.14C338.45 267.57 348.86 274.5 348.86 274.5C348.86 274.5 353.78 274.79 355.23 266.98C356.68 259.17 354.07 251.64 351.46 243.25C348.85 234.86 337.58 214.9 337.58 214.9C337.58 214.9 336.42 208.82 329.48 194.36C322.54 179.9 319.93 179.02 314.48 177.86C309.03 176.7 280.37 168.75 271.95 165.71C263.53 162.67 248.2 161.34 248.2 161.34C248.2 161.34 221.31 160.75 214.66 165.67Z" stroke="#263238" stroke-linecap="round" stroke-linejoin="round"/>
<path d="M222.76 188C222.76 188 227.39 202.46 230.28 210.27C233.17 218.08 239.28 226.77 239.28 226.77C239.28 226.77 249.7 200.44 250.57 196.39C251.44 192.34 252 190 252 190L222.76 188Z" fill="#8C8C8C" stroke="#263238" stroke-linecap="round" stroke-linejoin="round"/>
<path d="M214.66 179.56C214.66 179.56 212.06 193.44 212.06 198.94C212.06 204.44 212.35 209.36 212.35 209.36C213.231 209.487 214.13 209.367 214.947 209.014C215.765 208.661 216.468 208.089 216.98 207.36C218.98 204.76 223.3 201.68 228.38 199.17C233.46 196.66 245 197.49 245 197.49C245 197.49 254 203.86 257.44 206.49C260.88 209.12 264.1 209.97 264.1 207.07C264.1 204.17 261.78 191.16 260.05 183.64C258.32 176.12 256.86 173.22 256.86 173.22L216.07 174.96L214.66 179.56Z" fill="#FFA500" stroke="#263238" stroke-linecap="round" stroke-linejoin="round"/>
<path d="M302.74 277.26C302.74 277.26 303.45 272.82 303.99 270.7C304.53 268.58 305.23 264.85 305.58 263.96C305.93 263.07 318.52 254.21 332.7 256.34C346.88 258.47 360 272.82 360.36 275.84C360.72 278.86 355.75 290.55 354.86 294.27C353.97 297.99 349.36 300.12 346.86 300.65C344.737 300.924 342.585 300.867 340.48 300.48C340.48 300.48 344.38 280.48 336.4 274.6C328.42 268.72 316.73 275.13 312.12 276.72C307.51 278.31 303.45 279 302.74 277.26Z" fill="#FFA500" stroke="#263238" stroke-linecap="round" stroke-linejoin="round"/>
<path d="M222.42 322.79L240.42 352.32C240.42 352.32 235.76 359.16 224.88 362.89C214 366.62 197.88 366.89 192.23 365.69C186.58 364.49 186.95 362.58 192.86 348.9C198.77 335.22 214 327.76 222.42 322.79Z" fill="white" stroke="#263238" stroke-linecap="round" stroke-linejoin="round"/>
<path d="M232.68 332.11C232.68 332.11 228.01 333.98 227.08 335.84C226.15 337.7 220.24 346.41 220.24 346.41L256.61 321.85L254.75 319.37L232.68 332.11Z" fill="#263238" stroke="#263238" stroke-linecap="round" stroke-linejoin="round"/>
<path d="M290.16 307.56C290.16 307.56 316.54 307.66 330.48 303.93C344.42 300.2 351.48 297.74 352.75 293.73C354.02 289.72 342.54 271 336.1 268.86C329.66 266.72 315.88 269.52 307.99 273.32C300.1 277.12 279.99 288.43 279.99 288.43L290.16 307.56Z" fill="white" stroke="#263238" stroke-linecap="round" stroke-linejoin="round"/>
<path d="M271.71 324C271.71 324 289.13 319.29 290.08 317.8C291.03 316.31 292.38 305.89 289.39 297.05C286.4 288.21 274.73 282 271.7 281.87C268.67 281.74 259.85 289.7 259.85 289.7L246.22 306.7C246.22 306.7 231.84 314.02 230.22 316.63C228.6 319.24 230.54 330.12 230.74 332.77C230.94 335.42 230.87 339.16 231.82 342.28C232.77 345.4 235.04 349.51 236.65 349.56C238.26 349.61 239.74 350.56 241.21 348.86C242.68 347.16 241.95 344.54 241.33 343.34C240.71 342.14 241.05 335 241.5 333.9C241.95 332.8 240.83 336.8 242.36 338.28C243.89 339.76 245.5 342.13 246.81 342.92C248.12 343.71 249.08 342.39 254 341.66C258.92 340.93 260.7 340.97 262.76 339.93C264.82 338.89 265.76 339.52 267.29 336.38C268.652 333.248 269.593 329.949 270.09 326.57L270.18 325.32L271.71 324Z" fill="#DBDBDB" stroke="#263238" stroke-linecap="round" stroke-linejoin="round"/>
<path d="M262.74 325.22C262.74 325.22 262.62 333.05 262.8 335.35C262.899 336.889 262.899 338.432 262.8 339.97" stroke="#263238" stroke-linecap="round" stroke-linejoin="round"/>
<path d="M252.58 324.92C252.58 324.92 250.58 333.92 252.1 337.23C253.62 340.54 254 341.7 254 341.7" stroke="#263238" stroke-linecap="round" stroke-linejoin="round"/>
<path d="M242.65 322.84L241.54 333.94" stroke="#263238" stroke-linecap="round" stroke-linejoin="round"/>
<path d="M243.25 335.41C243.25 335.41 247.07 331.92 251.68 334.06" stroke="#263238" stroke-linecap="round" stroke-linejoin="round"/>
<path d="M255.88 333.21C255.88 333.21 260.48 330.54 262.81 333.21C262.81 333.21 265.75 332.1 267.33 336.42" stroke="#263238" stroke-linecap="round" stroke-linejoin="round"/>
<path d="M250.94 305.67C250.94 305.67 264.31 308.56 269.04 321.54" stroke="#263238" stroke-linecap="round" stroke-linejoin="round"/>
<path d="M234.23 369.15C234.23 369.15 235.79 367.37 230.5 363.79C229.105 362.759 227.415 362.202 225.68 362.202C223.945 362.202 222.255 362.759 220.86 363.79C220.86 363.79 219.31 360.21 216.51 359.85L213.71 359.5C213.71 359.5 213.4 352.7 209.98 351.98C206.56 351.26 204.98 355.2 204.98 355.2C204.98 355.2 200.32 350.91 197.52 351.98C196.715 352.278 195.989 352.755 195.396 353.375C194.804 353.995 194.36 354.743 194.1 355.56C194.1 355.56 190.37 350.2 187.88 351.63C185.39 353.06 184.77 357.35 184.77 357.35C184.77 357.35 181.66 355.56 179.49 358.07C177.32 360.58 177.62 362.72 177.62 362.72C177.62 362.72 174.51 358.78 171.72 361.64C170.926 362.367 170.294 363.253 169.865 364.24C169.436 365.227 169.22 366.294 169.23 367.37C169.23 367.37 166.12 366.29 165.81 368.08L165.5 369.87H238.24L234.23 369.15Z" fill="#9E9E9E" stroke="#263238" stroke-linecap="round" stroke-linejoin="round"/>
<path d="M159.82 263.75C159.82 263.75 136.48 269.43 135.22 272.9C133.96 276.37 136.16 291.82 137.11 294.98C138.06 298.14 143.11 299.4 147.83 300.98C152.55 302.56 167.39 305.98 172.12 306.34C176.85 306.7 181.9 307.29 184.12 303.51C186.34 299.73 186.01 295.94 187.27 289C188.53 282.06 193.58 283.32 183.8 274.49C174.02 265.66 163.92 263.75 159.82 263.75Z" fill="#FFA500" stroke="#263238" stroke-linecap="round" stroke-linejoin="round"/>
<path d="M142.47 287.41L151.3 326.21L175.91 327.78L180.91 296.87C180.91 296.87 178.07 286.78 165.14 282.68C152.21 278.58 142.47 287.41 142.47 287.41Z" fill="white" stroke="#263238" stroke-linecap="round" stroke-linejoin="round"/>
<path d="M180.64 343.56C180.64 343.56 180.01 319.27 180.32 317.38C180.63 315.49 178.11 309.8 163.32 309.8C148.53 309.8 138.72 320.53 139.32 323.05C139.92 325.57 144.05 341.66 144.05 341.66C143.638 344.163 143.427 346.694 143.42 349.23C143.42 353.33 139.95 356.49 141.21 361.23C142.47 365.97 148.46 375.74 152.21 374.16C155.96 372.58 157.26 372.27 155.99 367.54C154.72 362.81 153.79 359.34 153.79 359.34C153.79 359.34 157.57 371.64 159.46 374.79C160.138 375.996 161.161 376.971 162.398 377.589C163.635 378.208 165.029 378.442 166.4 378.26L168.3 377.95C169.284 378.68 170.436 379.148 171.649 379.312C172.863 379.477 174.098 379.332 175.24 378.89C179.02 377.32 179.65 374.79 179.65 374.79C179.65 374.79 182.49 376.37 183.75 370.06C185.01 363.75 186.59 356.5 184.75 350.82C182.91 345.14 180.64 343.56 180.64 343.56Z" fill="#DBDBDB" stroke="#263238" stroke-linecap="round" stroke-linejoin="round"/>
<path d="M144.05 341.66C144.05 341.66 144.99 335.66 158.24 334.41C171.49 333.16 176.85 338.82 176.85 338.82" stroke="#263238" stroke-linecap="round" stroke-linejoin="round"/>
<path d="M152.25 351.76C152.25 351.76 145.31 348.29 142.16 354.28" stroke="#263238" stroke-linecap="round" stroke-linejoin="round"/>
<path d="M168.34 377.94C168.34 377.94 165.88 360.99 165.1 358.29L168.34 377.94Z" fill="white"/>
<path d="M168.34 377.94C168.34 377.94 165.88 360.99 165.1 358.29" stroke="#263238" stroke-linecap="round" stroke-linejoin="round"/>
<path d="M179.69 374.78C179.69 374.78 178.24 359.64 178.05 356.36L179.69 374.78Z" fill="white"/>
<path d="M179.69 374.78C179.69 374.78 178.24 359.64 178.05 356.36" stroke="#263238" stroke-linecap="round" stroke-linejoin="round"/>
<path d="M201.22 151.33C201.22 151.33 201.95 160.08 204.87 162.63C207.79 165.18 208.2 167 208.2 167V151.35L201.22 151.33Z" fill="white" stroke="#263238" stroke-linecap="round" stroke-linejoin="round"/>
<path d="M207.36 157C207.36 157 209.92 176.81 213.8 182.61C217.68 188.41 223.44 200.01 227.43 201.34C231.42 202.67 239.88 205.87 249.32 199.34C258.76 192.81 261.74 176.22 263.22 169.44L264.7 162.67C264.7 162.67 273.27 160.86 274.45 151.83C275.63 142.8 273.61 142.44 273.61 142.44C273.61 142.44 269.36 146 245 146.38C220.64 146.76 213.62 147.09 210 146.62C208.003 146.321 205.967 146.402 204 146.86L207.36 157Z" fill="white" stroke="#263238" stroke-linecap="round" stroke-linejoin="round"/>
<path d="M206 154.65C206 154.65 207 160.52 208.16 166.98C209.32 173.44 210.82 180.52 211.82 182.98C213.82 187.8 218.04 197.22 222.65 200.43C227.26 203.64 234.09 207.25 241.51 205.05C248.93 202.85 255.75 198.05 258.36 192.81C260.97 187.57 261.57 187.19 262.97 179.37C264.37 171.55 265.58 160.11 265.58 160.11L267.19 150.69L261.19 152.29C261.19 152.29 262.99 156.9 262.99 159.71C262.99 162.52 259.78 176.56 259.18 178.97C258.58 181.38 256.97 183.18 255.37 183.58C253.77 183.98 252.16 184.19 248.37 181.78C244.58 179.37 238.94 179.57 235.37 179.78C231.8 179.99 231.96 177.98 226.74 179.58C221.52 181.18 216.74 183.19 216.74 183.19C216.74 183.19 213.33 182.19 211.33 174.57C209.33 166.95 208.52 155.11 208.52 155.11L206 154.65Z" fill="#263238" stroke="#263238" stroke-linecap="round" stroke-linejoin="round"/>
<path d="M239.74 177.72C238.661 179.125 237.298 180.287 235.74 181.13C233.33 182.33 229.74 181.53 228.92 179.92C228.1 178.31 229.72 164.48 229.72 164.48L227.12 160.06" fill="white"/>
<path d="M239.74 177.72C238.661 179.125 237.298 180.287 235.74 181.13C233.33 182.33 229.74 181.53 228.92 179.92C228.1 178.31 229.72 164.48 229.72 164.48L227.12 160.06" stroke="#263238" stroke-linecap="round" stroke-linejoin="round"/>
<path d="M223.49 164C223.49 165.6 222.69 166.9 221.69 166.9C220.69 166.9 219.88 165.6 219.88 164C219.88 162.4 220.69 161.09 221.69 161.09C222.69 161.09 223.49 162.37 223.49 164Z" fill="#263238" stroke="#263238" stroke-linecap="round" stroke-linejoin="round"/>
<path d="M246.56 164.78C246.56 166.38 245.76 167.69 244.76 167.69C243.76 167.69 242.95 166.38 242.95 164.78C242.95 163.18 243.76 161.87 244.76 161.87C245.76 161.87 246.56 163.17 246.56 164.78Z" fill="#263238" stroke="#263238" stroke-linecap="round" stroke-linejoin="round"/>
<path d="M224.1 184.14C224.1 184.14 226.5 187.75 233.52 188.35C238.025 188.595 242.5 187.476 246.36 185.14" stroke="white" stroke-linecap="round" stroke-linejoin="round"/>
<path d="M241.75 169.69C241.75 169.69 245.75 172.1 248.75 171.3" stroke="#263238" stroke-linecap="round" stroke-linejoin="round"/>
<path d="M225.5 166.88C225.5 166.88 222.69 169.88 219.68 170.29" stroke="#263238" stroke-linecap="round" stroke-linejoin="round"/>
<path d="M226.52 94.3802C226.52 94.3802 215.52 97.5702 210.24 104.88C204.96 112.19 201.93 127 201.93 127C201.93 127 198.76 128.38 198.66 130.31C198.578 131.553 198.598 132.801 198.72 134.04C198.8 134.95 195.92 138.4 196.72 140.24C197.52 142.08 197.02 146.7 198.72 150.65C200.42 154.6 202.87 157.31 209.9 158.32C216.93 159.33 242.49 160.44 248.18 159.84C253.87 159.24 260.96 156.84 263.78 154.62C266.6 152.4 278.27 141.1 277.65 138.24C277.03 135.38 277.09 131.9 275.87 130.55C274.65 129.2 273.21 127.32 273.21 127.32C273.21 127.32 270 109 264 103.15C260.608 99.7632 256.724 96.9077 252.48 94.6802C250.895 93.4242 248.942 92.7218 246.92 92.6802C243.82 92.7702 241.85 91.1202 238.92 91.4802L235.92 91.8402C235.92 91.8402 228.24 91.1202 226.52 94.3802Z" fill="white" stroke="#263238" stroke-linecap="round" stroke-linejoin="round"/>
<path d="M201.93 127V142.06C201.93 142.06 211.66 147.86 232.5 148.19C253.34 148.52 262.76 145.68 265.5 144.19C268.24 142.7 271.5 140.64 271.5 140.64C271.5 140.64 270.76 135.32 271.16 132.64C271.526 130.765 272.231 128.972 273.24 127.35" stroke="#263238" stroke-linecap="round" stroke-linejoin="round"/>
<path d="M210.9 144.74C210.9 144.74 210.55 136.74 211.78 133.07C213.01 129.4 220.39 128.38 222.97 123.5C225.55 118.62 225.92 104.34 226.35 101.02" stroke="#263238" stroke-linecap="round" stroke-linejoin="round"/>
<path d="M255.44 144.79C255.44 144.79 257.54 136.66 252.44 131.37C247.34 126.08 240.77 130.49 237.44 120.66C234.11 110.83 236.71 98.0902 239.44 93.4702" stroke="#263238" stroke-linecap="round" stroke-linejoin="round"/>
<path d="M242.11 366.37C241.749 367.757 241.681 369.205 241.91 370.62L199.77 369.87L128.31 391.23C128.99 394.74 125.42 391.48 126.02 394.74L126.61 398.01L94.53 416.47V420.36V441.72V445.6V467H463.77V345H242.11V366.37Z" fill="#9E9E9E" stroke="#263238" stroke-linecap="round" stroke-linejoin="round"/>
<path d="M313.57 345.01H242.11V366.37H313.57V345.01Z" fill="white" stroke="#263238" stroke-linecap="round" stroke-linejoin="round"/>
<path d="M388.91 345.01H317.45V366.37H388.91V345.01Z" fill="white" stroke="#263238" stroke-linecap="round" stroke-linejoin="round"/>
<path d="M199.77 369.87H128.31V391.23H199.77V369.87Z" fill="white" stroke="#263238" stroke-linecap="round" stroke-linejoin="round"/>
<path d="M275.12 369.87H203.66V391.23H275.12V369.87Z" fill="white" stroke="#263238" stroke-linecap="round" stroke-linejoin="round"/>
<path d="M350.85 369.87H279.39V391.23H350.85V369.87Z" fill="white" stroke="#263238" stroke-linecap="round" stroke-linejoin="round"/>
<path d="M426.19 369.87H354.73V391.23H426.19V369.87Z" fill="white" stroke="#263238" stroke-linecap="round" stroke-linejoin="round"/>
<path d="M463.78 369.87H429.23V391.23H463.78V369.87Z" fill="white" stroke="#263238" stroke-linecap="round" stroke-linejoin="round"/>
<path d="M165.99 395.11H94.53V416.47H165.99V395.11Z" fill="white" stroke="#263238" stroke-linecap="round" stroke-linejoin="round"/>
<path d="M241.33 395.11H169.87V416.47H241.33V395.11Z" fill="white" stroke="#263238" stroke-linecap="round" stroke-linejoin="round"/>
<path d="M317.06 395.11H245.6V416.47H317.06V395.11Z" fill="white" stroke="#263238" stroke-linecap="round" stroke-linejoin="round"/>
<path d="M392.41 395.11H320.95V416.47H392.41V395.11Z" fill="white" stroke="#263238" stroke-linecap="round" stroke-linejoin="round"/>
<path d="M199.77 420.36H128.31V441.72H199.77V420.36Z" fill="white" stroke="#263238" stroke-linecap="round" stroke-linejoin="round"/>
<path d="M125.02 420.36H94.49V441.72H125.02V420.36Z" fill="white" stroke="#263238" stroke-linecap="round" stroke-linejoin="round"/>
<path d="M275.12 420.36H203.66V441.72H275.12V420.36Z" fill="white" stroke="#263238" stroke-linecap="round" stroke-linejoin="round"/>
<path d="M350.85 420.36H279.39V441.72H350.85V420.36Z" fill="white" stroke="#263238" stroke-linecap="round" stroke-linejoin="round"/>
<path d="M426.19 420.36H354.73V441.72H426.19V420.36Z" fill="white" stroke="#263238" stroke-linecap="round" stroke-linejoin="round"/>
<path d="M463.78 420.36H429.23V441.72H463.78V420.36Z" fill="white" stroke="#263238" stroke-linecap="round" stroke-linejoin="round"/>
<path d="M165.99 445.6H94.53V466.96H165.99V445.6Z" fill="white" stroke="#263238" stroke-linecap="round" stroke-linejoin="round"/>
<path d="M241.33 445.6H169.87V466.96H241.33V445.6Z" fill="white" stroke="#263238" stroke-linecap="round" stroke-linejoin="round"/>
<path d="M317.06 445.6H245.6V466.96H317.06V445.6Z" fill="white" stroke="#263238" stroke-linecap="round" stroke-linejoin="round"/>
<path d="M392.41 445.6H320.95V466.96H392.41V445.6Z" fill="white" stroke="#263238" stroke-linecap="round" stroke-linejoin="round"/>
<path d="M463.78 345.01H392.47V366.37H463.78V345.01Z" fill="white" stroke="#263238" stroke-linecap="round" stroke-linejoin="round"/>
<path d="M463.77 395.11H395.96V416.47H463.77V395.11Z" fill="white" stroke="#263238" stroke-linecap="round" stroke-linejoin="round"/>
<path d="M463.77 445.6H395.96V466.96H463.77V445.6Z" fill="white" stroke="#263238" stroke-linecap="round" stroke-linejoin="round"/>
<path d="M480.92 466.96H17.28" stroke="#263238" stroke-linecap="round" stroke-linejoin="round"/>
</svg>
